<mxfile host="app.diagrams.net" modified="2023-02-21T10:44:40.857Z" agent="5.0 (Windows NT 10.0; Win64; x64) AppleWebKit/537.36 (KHTML, like Gecko) Chrome/110.0.0.0 Safari/537.36" etag="FRz3MxclLqbueoiW1fvf" version="20.8.20" type="github">
  <diagram name="第 1 页" id="-b6dv0WJhm-wiqcQWLJF">
    <mxGraphModel dx="684" dy="417" grid="1" gridSize="10" guides="1" tooltips="1" connect="1" arrows="1" fold="1" page="1" pageScale="1" pageWidth="827" pageHeight="1169" math="0" shadow="0">
      <root>
        <mxCell id="0" />
        <mxCell id="1" parent="0" />
        <mxCell id="Z2Dq__Oj7p5oFGIFwOEu-3" value="" style="rounded=1;whiteSpace=wrap;html=1;" vertex="1" parent="1">
          <mxGeometry x="110" y="60" width="350" height="190" as="geometry" />
        </mxCell>
        <mxCell id="Z2Dq__Oj7p5oFGIFwOEu-2" value="" style="shape=image;verticalLabelPosition=bottom;verticalAlign=top;imageAspect=0;aspect=fixed;image=data:image/png,iVBORw0KGgoAAAANSUhEUgAAAMgAAADICAYAAACtWK6eAAAAAXNSR0IArs4c6QAAETxJREFUeF7tnQuMXNV5x//fnbVrDAbPbFzapDR+zHgTGdKWh+Tm0YCUlBJC1AraUolURG6znlmDQ4oKFqmyaVUITQrBzsziqkqBJG1j0jqOWhoTKKRASIJTIC0l3jsYBbBb1t47NoY1u969X3XHXrNe7+POnXPv3Md/pJUQe873+J3z89l53DsCPkiABGYlIGRDAiQwOwEKwt1BAnMQoCDcHiRAQbgHSCAYAZ4gwbhxVkYIUJCMLDTbDEaAggTjxlkZIUBBMrLQbDMYAQoSjBtnZYQABcnIQrPNYAQoSDBunJURAhQkIwvNNoMRoCDBuHFWRghQkIwsNNsMRoCCBOPGWRkhQEEystBsMxgBChKMG2dlhAAFychCs81gBChIMG6clRECFCQjC802gxGgIMG4cVZGCFCQjCw02wxGgIIE48ZZGSFAQTKy0GwzGAEKEowbZ2WEAAXJyEKzzWAEKEgwbpyVEQIUJCMLzTaDEaAgwbhxVkYIUJAIFrpQs9VoGkG/Uy59zmhMBpuRAAWJYGNQkAggh5SCgoQEdmpYChIB5JBSUJCQwFKQCMBGkIKCRACZJ0gEkENKQUFCAssTJAKwEaSgIBFA5gkSAeSQUlCQkMDyBIkAbAQpKEgEkHmCRAA5pBQUJCSwPEEiABtBCgoSAWSeIBFADikFBQkJLE+QCMBGkIKCRACZJ0gEkENKQUFCAssTJAKwEaSgIBFA5gkSAeSQUlCQkMDyBIkAbAQpKEgEkHmCRAA5pBQUJCSwPEEiABtBCgoSAWSeIBFADikFBQkJLMOmgwAFScc6souQCFCQkMAybDoIxF6QpVvsi02jPnhd6dHJmGHE92KHnWNqfNN8GO8tArEXJF+zHxHAmCQKPNqolC6ZRFAYsD8LRb/JTeFO4JKpG5hP0k3SjTYWBaEg0e64hGWjIBQkYVs22nIpCAWJdsclLBsFoSAJ27LRlktBKEhkO+6X7nj5NPf0V2Vf74UjkSVtMxEFoSBtbiH/0/MD9T8V1V4VuaVRLv6j/5mdG0lBKEgkuy9f++l7BLmdAH7heMJvuILbD5ZLT0dSQMAkFISCBNw6rU0r1OyvAPjE1FkKjIrgtjh/lQMFoSCt7fQAows1+3cBbJt1qspmp6+4MUDo0KdQEAoS+ibL1+xdAlwwVyIFvtaolD4eejEtJqAgFKTFLdPa8Hyt/kmBbvU3S/7VqRQ/6m9sNKMoCAUJdaf5OT2mPS856bNyoRbnIzgFoSA+tkmwIa2dHifl+DenUvpIsKxmZ1EQCmJ2R02J1s4nsRVWuVFZdXdoxfkMTEEoiM+t0tow7zobK4dHWpt18ujplw20EyvoXApCQYLunTnn5at2VQSVNoO/PpHDrx7qLb3QZpzA0ykIBQm8eWabuPTOp5fKwjMGRbCs/eD6kDMuH8X1pdH2Y7UeIfaCNK/4M/yY+s5tGPHdcXzvpCsKQ+7BMJ62wy2t2R+zgB1tBzoeQEX+slEufsZUvFbixF6QVprh2HgQKFTtL0LwJ8aqERyGYK2zvvQ/xmL6DERBfILiMP8E8jXbFqDof4aPkSJbnXJxvY+RRodQEKM4GSw/UD9XVP8rDBKulfvgwfUr/yOM2LPFbEsQ76U8ycHocwQRPDr1OYL3WrppINPvaqJq7q4pXq06gc9NfQ5iuoeoGbXCf94PJrYS7NSx/+RUSle1F6K12W0L0u5r3aeUK+ifLghv+zONUsiMvGxOpRRobxQG7BuguKO1beh/dM6yVu9fv8r2P6O9kYEgTKY08WYQBQmwgHEWpGrfAcENAbryN0Xlaqev+A1/g9sfRUFS8D5IOx/pmG0LBT5BarZ33Yd3/UcoDxH5q+Fy8aZQgs8QlIJQkBn3WlBBwpD15ALlIadS/DAFOU7ANPA03nrUNKN2noOEUctJMggcgfue4XLP3qn/P7/1hV/WMXdlrssdcZEbcdUdWagLRsa73CMNNEbQe+HRIFLxBOEJkrATBBDB51VlOaDLAXg/kzeCmMuBlwF8H6pPuiLPWON42rm+9Np80lAQCpI4Qebb1L5+LxiDYpf3F4Ul8vBwufjvM82jIBQkm4JM71rwJBR3OpXS/VN/RUEoiGFB6psFep2vf8XjOegOp1I68TkyCkJBjApSGKj/MVT/Jp5732dVim1OX+n3vdEUhIKYFaRmrwXwpM+tGNthk692UhAKYlSQs+/7v9OPvn749dju/FYKE2sdBaEgRgXxghVq9ccAfX8rezGGY/c5ldI7KAgFMS9IdfBGiHwhhpved0kC95bhSs+tFISCGBeku7r7IhXrR753Y/wG7nOGxlagf80YBaEgxgVp/plVHXweIu+K3973UdGUT0tTEAoSjiAD9T+H6p/52I4xGyI/s3Jdv36gd/n/GnmZl1cUnrq+Wb6icJLGWZvtVbku/BjAWTEzYM5yFNLbqBRPvI/T1gmSpMZZa/QECjX7TgCfij5z0Izyz06leOXU2RQkKEvOm5fAWVvt83MT8J6s5+Yd3PkBIxbkNw5Uit6pd+JBQTq/MKmrIF8bvByQq0X1aoh0JaFBAW4ZrpRunV4rBUnC6iWgxkK1/l6x9ApVXAFgTQJKnlri/U6l9Hsz1UxBEraSHSl323MLlwxZS3I5LJFxLJEFXWdAcQ5UzlPR80RxHoCVHamt/aSzyuGFlsLA4JVQ+Wb7eRiBBBJHYE45moJ0D9Q3qOqWxLXGgkmgPQLzytEUJF+zvc+bbGovF2eTQGIIvKQitzbKRV9fLCrdNfurClyTmPZYKAkEJaC6VbtytzZ6V73kN4QUavYTAN7rdwLHkUDCCByAyHadmPhWY0PPA63WLoVafR+gv9jqRI4ngRgTOAyRx+BOfOtoF7Yf7u05ELRW7wTRoJM5jwRiQuAlBfZYKg9NuPrE4oWn/2hf79tHTNRGQUxQZIzwCAj61dUjlmWNKHRE4Y7Atd6wLHlDJuSVAwdW7kG/jIdVAAUJiyzjGiGQ07El+/vWdOwadwpiZBkZJAwCqtjR6Cv9dhix/cakIH5JcVzkBFStDzT6Vj0eeeIpCSlIJ+kz9xwE5AmnUuz4nVEoCDdpLAlMv7KvU0VKvmoPiWBZpwpgXhI4lYDsdirFWNzwQfID9o9FcT6XiQTiQmC2i5c6UZ/3YcUdAnysE8mZkwRmIPDiApG1r5aLQ3Gg4/2JVRVBJQ7FsAYSAHCDUyl9KS4kvD+xbhbFbXEpiHVkmYA+5Qz9/Vr097txoeD9iXWNAF+NS0GsI7sEVHBNo1z6epwIyNIt9sVWDo/EqSjWkkECqg84fasvj1vngm3PLSwcWDgat8JYT8YICH7LKZd2xq3r5l1NCrX644C+L27FsZ6sEJB7nUrx2jh22xSku2rfpoKb41gga0o9gUOu6sUH+1Y/E8dOj50gvPVPHNcmGzWpe6PT1/PXcW22KcjSgeeXW9r1YlyLZF0pJSDygFMuxu6J+VTaJ+6sWBio/wSq3h3y+CCB0AkoMGrluj443Lvih6EnayPBCUG6a3ZNgXIbsTiVBHwTiNPnreYq+q0T5G77Kri433eHHEgCQQmIPOyUix8KOj3KeScEOfNvXy50jb3pPQ85M8oCmCt7BFzg4oOV0veS0PlJd3fP1+ztAnT0GuAkQGONbRCI+atW0zs7SZDuWv06hW5uo31OJYHZCaje4/St/kSSEJ0kSOHL9hpY+O8kNcBaE0JAZNf4gp+79LU/OsdJSMXNMk/5Ap1CzX4SwNokNcFa403Ae0lXgUuT8rxjKs1TBakOboRIbC5YiffSszo/BATYMFwpVf2MjduYUwRZ8uXnuxdYXc8CeEfcimU9ySMgkLuHK8XEvr8243cUdtfszytwU/KWgxXHiYAA/zI89MrvoP+S0O6dG3a/MwqSH6ifK6reKWKFXQDjp5bAD4+645cf3vDu4SR3OOu33OZr9r0C/GGSm2PtHSMwNgF996HK6j0dq8BQ4lkFKdw9+GG48qChPAyTIQKu4PyD5dLTaWh5zu9JLwzY90NxVRoaZQ/REBDX/dDwhp6Ho8kWfpY5BclXd79fxHos/DKYIRUERG50ysXYXvwUhPGcgngB8wP1LaK6IUhwzskOAQVublRKt6et43kFObNaL3aJeu+uvy1tzbMfMwSS/EbgfATmFcQL0F0b/IxC/mK+YPx99ggI3GuHKz33prVzX4Isqz53xoQs9E6Rc9MKgn21TOCAiPvJ4XLP9pZnJmiCL0Gap8iA/XFV3Jeg3lhqaATkJ3B1vbOh5P2jmeqHb0E8CoWB+pegujHVRNjc3AQE3xS4nxou9+zNAqqWBFn+dy8ueu3IxHcB7fh3x2VhceLWowK3NiqlW+JWV5j1tCSIV0h+oP4+UXiSnBZmYYwdKwKHBLJxuFJM7ZPx2Wi3LMix5yP161X1rlgtIYsJiYA+BUs2OuvT/3xjJoCBBGmeJLX6vQLlhxlD2pZxCKvAfePu+KeT/oncdlgGFqR5klQHv60iV7RTAOfGkIDqGyLYNFxZvSWG1UVaUluCNF/Zqg1+F5BE3AQsUrIJTabAowJsciqlHyS0BaNlty3IMUnsxwHw+0WMLk0ngukXnaG9m5J8BaBpakYEaUpStZ+C4ELTBTJeJAT2QLDJKZe2RZItQUmMCXL8JPkOgEsT1H+2SxWMwdXNmJC7nOtLr2QbxszdGxWkKcmA/Vko+gk73gS8V6hcF3cd2lD6z3hX2tnqjAvitZMfqF8tqv/Q2daYfRYC34HKXU5f0Tvt+ZiHQCiCHH9O8puQ5tcp8G7xcdiGIrvExZbhviI/cNrCeoQmiFdDd3X3RRBrqwK/1kJNHGqSgMjDqnpPo1L6msmwWYkVqiAexLO/8OzpRxefdpMKbhLIwqyA7XifqttdkXsOVkrf7ngtCS4gdEEm2XRXX7hIxfXu1nhlgnnFv3TVe46LkYgvqIk70MgEeUuUwWubtzUVeVfc4SSnPvm+Cnbk1NpxoLJyd3Lqjn+lkQviIWneIDu3oALVdQDeGX9M8atQgboodqi4OxqVHt6aKaQl6oggk71434uYGxtdJ3DXAdITUo8pCqvDCnlARHc4r+7dwY+EhL+0HRVksr23b923eHRiZJ0eE+VXwm87URn2Avog1NrpjuV2HrxhxcFEVZ/wYmMhyAmG/Wrlz67/geXiMhW9DJBCwvkGLX+PCHZC3QdPe3Pxzlc+fc6RoIE4rz0C8RJkSi/NP7+OvnlZRmQZFGCXC3nG+9oJZ//XH0J/v9ve0nK2CQKxFWRqc5OyiCsfgLjno/nGo3SZANCBGK8B8K61+IGK9ZS4+qzTV3y5A3UwpQ8CiRBkeh9vu/2nS8YX5y6wLPcCQI79CFb76DfKIS8CshvqDipktyU6qGrtpgxRLkH7uRIpyExte7ckOjxydIWby62wXHeFKlZAdIVAjv83lraPS48CGBLIkALNH1EMqSVDFjDkqrsfYv2s8eroIPrXjLWfjxE6TSA1gswLsv+RrmXLfn7Rm11dixaMWovGc7IoZ2FRbnx80YQli4Au7/vmRicmxsdygtFx6OgCYHRUdHSRuKP7u46MovdCTxA+MkQgO4JkaFHZqjkCFMQcS0ZKIQEKksJFZUvmCFAQcywZKYUEKEgKF5UtmSNAQcyxZKQUEqAgKVxUtmSOAAUxx5KRUkiAgqRwUdmSOQIUxBxLRkohAQqSwkVlS+YIUBBzLBkphQQoSAoXlS2ZI0BBzLFkpBQSoCApXFS2ZI4ABTHHkpFSSICCpHBR2ZI5AhTEHEtGSiEBCpLCRWVL5ghQEHMsGSmFBChICheVLZkjQEHMsWSkFBKgIClcVLZkjgAFMceSkVJIgIKkcFHZkjkCFMQcS0ZKIQEKksJFZUvmCFAQcywZKYUEKEgKF5UtmSPw/1d/yxo267BlAAAAAElFTkSuQmCC" vertex="1" parent="1">
          <mxGeometry x="90" y="210" width="60" height="60" as="geometry" />
        </mxCell>
        <mxCell id="Z2Dq__Oj7p5oFGIFwOEu-5" value="" style="rounded=1;whiteSpace=wrap;html=1;" vertex="1" parent="1">
          <mxGeometry x="210" y="80" width="230" height="120" as="geometry" />
        </mxCell>
        <mxCell id="Z2Dq__Oj7p5oFGIFwOEu-4" value="" style="shape=image;verticalLabelPosition=bottom;verticalAlign=top;imageAspect=0;aspect=fixed;image=data:image/png,iVBORw0KGgoAAAANSUhEUgAAAMgAAADICAYAAACtWK6eAAAAAXNSR0IArs4c6QAADpRJREFUeF7tnQfMNUUVhl9ClFixJAQ7QcGKGsWGClhQYlcUezQI9qgIiQL2AlaCYrArIqIBrEQTEIEIKhARxYKgYEPFEKyIogTMG+f+2f9+u3t3Z8+cnbnzTnLz/WXnzDnPue+3bebMFlATARHoJLCF2IiACHQTkED07RCBHgISiL4eIiCB6DsgAnEEdAaJ46ZelRCQQCpJtMKMIyCBxHFTr0oISCCVJFphxhGQQOK4qVclBCSQShKtMOMISCBx3NSrEgISSCWJVphxBCSQOG7qVQkBCaSSRCvMOAISSBw39aqEgARSSaIVZhwBCSSOm3pVQkACqSTRCjOOgAQSx029KiEggVSSaIUZR0ACieOmXpUQkEAqSbTCjCMggcRxU69KCEgglSRaYcYRkEDiuKlXJQQkkEoSrTDjCEggcdzUqxICEki6RO8O4HRj88qXMdBV5gR8FaH4/5dA4tll01MCSZcKCSQdWzfLEkg61BJIOrZuliWQdKglkHRs3SxLIOlQSyDp2LpZlkDSoZZA0rF1syyBpEMtgaRj62ZZAkmHWgJJx9bNsgSSDrUEko6tm2UJJB1qCSQdWzfLEkg61BJIOrZuliWQdKglkHRs3SxLIOlQSyDp2LpZlkDSoZZA0rF1syyBpEMtgaRj62ZZAkmHWgJJx9bNsgSSDrUEko6tm2UJJB1qCSQdWzfLEkg61BJIOrZuliWQdKgpEOt2hrVB2esnIIHoGyICPQQkEH09REAC0XdABOII6AwSx029KiEggVSSaIUZRyBHgbwZwFviwmntxSc/j2j5n+sNx6CpZZZ6zGsMeA5zEogddQnEjmU2liQQu1RIIHYss7EkgdilQgKxY5mNJQnELhUSiB3LbCxJIHapkEDsWGZjSQKxS4UEYscyG0sSiF0qJBA7ltlYkkDsUiGB2LHMxpIEYpcKCcSOZTaWJBC7VEggdiyzsSSB2KVCAhnOclcA2wE4ZniXeY6UQOy4SyDDWG4P4DsAtgWwP4AjhnWb5ygJxI67BLKa5VYATgKwR+NQTkx96+qu8xwhgdhxl0BWs3wfgANaDvs8gOes7u5/hARix1wC6Wf5KACn9hxyHoDdAPzTLiXTLUkg0xkuLEgg/SwpDoqkr10FYGcAF9mlZZolCWQav2ZvCaSbJS+reHk1tD0EwNlDD055nARiR1cC6WZ5CQA+vRrTtgFwxZgOKY6VQOyoSiDtLJ8B4PgIzJcC2AHAdRF9zbrkKBCvioTW4yxXPbS2z6SXWFnxWADPjfzG8kXiCyL7mnTLUSAmgclINgR4432TCd4c3vFoeILJ4V0lkOGsdOR4ArGXV8sjvQTAx8YPP72HBDKdoSx0EzgSwCsNAPEdCR//ujcJxB15VQOeDOAxRhHPchYZKxDeeLKwm2VbLupG+9Y3uG2F4063DKKlON06sYpF9aswaze2f7PfLGeRGIFYf7GWfVBlxe6v01ysYr7gNwRwTUzHnj7uZxEJxC6Dc7wH8fplEkNpJwAXxHTs6eN+FpFA7DIogWzOkvcevAexblxsdaa10S57EogdaQlkc5Z7ATjRDu8mS4cAODSB3VaTEogdaQlkc5YvBPBpO7ybLPGstGcCuxLIEoF12P4g53sQvv/gexDrdvXEN/Oj/NEZZBSu3oN1Btkcz0EJL4X42L45L21LAA8C8GAAN+vI0u8BnDv2wYEEIoE0CXRtNhRDab+E00O4jp3LdJ8QPm3vubp85opFrjU5P4iFry0u0036RgK6xNrIxFIg9w1fwhhxefa5MpQf+gyAHy0PrDOIXSp0ibWR5d97LnnsyNtZokg4xf60hUkJxA6uBLKRJS9frKcN2WWs29JXAbwHwHclEDvcEshGll1lfuyop7P0HwCHSyB2gCWQjSyfDeA4O8TuliQQQ+QSyEaYO+ZUwmdkrn/JR8c6g4yk1nO4BNIO52sAnmiH2c3SPpwJIIHY8ZZA2lnyXQXr8ZbUTgCwNx2WQOzSJoF0syzpLMIiE5wxzBeJEoidPjaw5OPNdVlcNhUTq7mfMtWIU/+DARy2GEtnEDvqOoP0szwKwMvscCex9GUAT2tajhEIK3BbtuW9IazXvNPXtv0nrMdZHoNnkHVhZZHvO4a5T1tbGEtg4ycAdgHwjykCSeCXTFZAgLNs9wXwooxjvT0AzvjdrI09g2Qcn1zLkADPohTF8zL0rekSBXxOm48SSOaZK9Q9rvijMJ6euf8UxSMBcBFWa5NAMs9gIe7dOSxYug8ATnO3KhaXMvx3AHjjqgEkkFWE9P8LAjcCcCsAtw4/eVnCjW4oCN6Al9A4/f7osFb+h0McpkBYYPjlQw7WMdURaAqCAim1ca8RTppkEQn+eXCjQKwX/g8eXAeKQEICrOr4FQB8t8GfUVUeKZApG5wkjE+mRWAUAc6+5WUT32dwE1DegLM28KRGgZS66mtS4OpcDIHLAXBdyXL7G4Dm59oUEUkgKajKpiWBVwP4oKXBMbYkkDG0dKw3gb+EJ2be424aTwKZDb0GHkDg3QBeP+C4ZIdIIMnQyvBEAizwdrtwnzHRVHx3CSSenXqmJcD7Dt5/zNokkFnxa/AOAv8FwGkrF85NSAKZOwMav43AR3JZXCWB6AuaGwGePTjP6wc5OCaB5JAF+dAk8H4AB+aCRALJJRPygwT+EM4ev8sFBwXC6z1ur6smAnMT4DsPvvvIplEg+7NIbzYeyZFaCXBvDq4v+VdOACiQxwH4ek5OyZcqCXCJ7qdyi5wC2R7AJbk5Jn+qIvAtAI/OMeLFklvuhXCDTBz8BYCLw+fHAK4IyzrvCeCu4XPjTHyVGzYEngyA5UmzawuB8It4r5m9428Rbs541go/WL/oteHeaWaXNbwBgSNyzuVCICcC2Msg2FgTh0RsGcwbum967pkdG5z6dRLgCkDuUPvXXBktBMISKPySztGeAoB7wsU2Pju/TWxn9ZuVwFPDevFZnegbfCGQ54fdPb0d/QaAx08c9B4AfjrRhrr7E8j60mqBYyGQOb5kvw433HxAMLW9HcAbphpRfzcC2V9aLQuEf2c1CD4p8mosM8+SLFbt5EIq+lnFW7Kd7C+t2gTiWR+LNYq2AcBKd1btvTlNcrMKag3tcP/x15USV7P0qOdl1hnh6YUlp7nuoyxjWHdbX5r5aelovsu1ec8F8IDRVsZ3eBeAg8Z36+1xbwCcz6OWJ4ELwrSmDXtw5Onu/71aFsibOnZjso4h1ZvT660dlT0TApyAyDl/vHIoqi0LxOsy61UAjjQmxZkAnBGglh+B/QB8Ij+3VnvUtv2BRynS4wE8c7V7o46gvS+M6qGDPQgUdVO+DKRNIJznxGWPKRvffrPmkWXTuxBLmja2OIWJ22sU29oEsmOojp06KM6lOttwEL5T4bQVtTwInBS2YLN4ETxbRF07TH0IwCsSe2W5BoC+0me1PAjwFx+3YdtsS+U8XBvnRZdA7uZUtMuiet7dAfxsXNg6OiEBrt/hjAz+LL51CYSBcZ0616unbncC8NsJg/wRwLYT+qurLYE7ALjM1uR81voEwoVJXuVXuCZg7DNy7qx6KoDt5sOnkZcI7ACAOz2tTesTCIP8KIAXO0V7VDhrrVofv1U4sx3m5JeGGUZgNwDfHnZoOUetEgh3OeWqvfs5hcTrVt68/zys8eC06D8BuH/wgfcb9MXLH6ewix9mZwDnFR9FSwCrBMIuewA4ZR2DV0yTCVwJ4GHhF9pkYzkaGCIQ+s2JhYfmGIB8mo0AV3HuuU435G0khwqEfb8IgIuc1ETgtPASkHsIrnUbIxA+oeD9CB/LqtVL4HMA9gFQ9BvyoekbIxDa5H7Vxw01ruPWjgBXnb5t7aLqCWisQGjKc2luTbnIOVY+SXxNjbOlYwQikeT8Vbb37cywmeb59qbztxgrEIkk/9xaePjJIA5uyVxlmyIQAnsngIOrJLfeQf853Gt8YL3DXB3dVIFwhI8D2Hf1UDqiEAInBHGwTlr1zUIghMjauk+qnmbZALjKk0+oOP9OLRCwEgjNzV0hXkmNJ3BsEAf3ZlFrELAUCM1yE0bNsi3nK8YnU1y0dnQ5Lvt6ai0Qes+ttFi15Ja+oWi0EQQuBPDh8Ll2RL/qDk0hEEK8BQCWmeRCKLV8CFzaEEa1j27HpCOVQBY+sHwQywipzUuAN+CLMwanqKsNJJBaIHSDRaU5XZ6LndR8CbDS5GfD5kicLqI2koCHQOgS70cOBHAAAC6ZVUtLgNPRjwniuC7tUOtt3UsgC4pcOkuhPGu9sc4WHUuv8ozBre3UDAh4C2ThMstRUigPNIihdhMXhZ26uKDt+7XDsI5/LoEwji2DSF6q0j2j08rtBPiUkOVW+dFl1GiEwzrMKZCFhzcFsHf4PHaY29UexannFATF8ZtqKTgGnoNAmuHu0hCL9j4H+N6C21F8L3xUYtVRHBwqN4Eswmc9rsVZpaaXjSyCwGqR/JylmsPOamgZLleBNF3dCcBDQ/0l1uji7rjr0rhvHyuhnxN+6gyRWWZLEMgyMl6G7Q6A9yu7Zsazzx2WVGUtqYUYKIyrC/K/SldLFEgzUbzBfziAuwBgWaLmzzkSymkcfOzKz8VLf9akwDkyMnHM0gXSF35TLLcFcPOWz9aNf+Nj52vC59+NP/PfFn+nADhl4/Lwk39ufq6amA91z4zAOgskM9Ryp0QCEkiJWZPPbgQkEDfUGqhEAhJIiVmTz24EJBA31BqoRAISSIlZk89uBCQQN9QaqEQCEkiJWZPPbgQkEDfUGqhEAhJIiVmTz24EJBA31BqoRAISSIlZk89uBCQQN9QaqEQCEkiJWZPPbgQkEDfUGqhEAhJIiVmTz24EJBA31BqoRAISSIlZk89uBCQQN9QaqEQCEkiJWZPPbgQkEDfUGqhEAhJIiVmTz24EJBA31BqoRAISSIlZk89uBCQQN9QaqEQCEkiJWZPPbgQkEDfUGqhEAhJIiVmTz24E/gcDnHENPPBV2gAAAABJRU5ErkJggg==" vertex="1" parent="1">
          <mxGeometry x="190" y="170" width="50" height="50" as="geometry" />
        </mxCell>
        <mxCell id="Z2Dq__Oj7p5oFGIFwOEu-6" value="" style="shape=image;verticalLabelPosition=bottom;verticalAlign=top;imageAspect=0;aspect=fixed;image=data:image/png,iVBORw0KGgoAAAANSUhEUgAAAMgAAADICAYAAACtWK6eAAAAAXNSR0IArs4c6QAAEDtJREFUeF7tnXuMXFUdx3+/s7PSSlGKbaIhaouErnPPjEglaXlISUBEHtEAigkYCBGBgAUlQgOGorGAIggEQ/3DAGKUh0KNIuUhReTNSnfuuVNaKw1QMKkIAtJ22517zFln1+l0H3funHvmPr432Wyh9/zO7/c559Mzj3vPZcIBAiAwKQEGGxAAgckJQBDMDhCYggAEwfQAAQiCOQAC8QhgBYnHDa0KQgCCFGSgUWY8AhAkHje0KggBCFKQgUaZ8QhAkHjc0KogBCBIQQYaZcYjAEHicUOrghCAIAUZaJQZjwAEiccNrQpCAIIUZKBRZjwCECQeN7QqCAEIUpCBRpnxCECQeNzQqiAEIEhBBhplxiMAQeJxQ6uCEIAgBRlolBmPAASJxw2tCkIAghRkoFFmPAIQJB43tCoIAQhSkIFGmfEIQJB43NCqIAQgSEEGGmXGIwBB4nFDq4IQgCAFGWiUGY8ABInHDa0KQgCCOBhoKaW23M1ypdSVlmMi3AQEIIiDaQFBHEBOqAsIkhDY1rAQxAHkhLqAIAmBhSAOwDroAoI4gIwVxAHkhLqAIAmBxQriAKyDLiCIA8hYQRxATqgLCJIQWKwgDsA66AKCOICMFcQB5IS6gCAJgcUK4gCsgy4giAPIWEEcQE6oCwiSEFisIA7AOugCgjiAjBXEAeSEuoAgCYHFCuIArIMuIIgDyFhBHEBOqAsIkhBYrCAOwDroAoI4gIwVxAHkhLqAIAmBxQriAKyDLiCIA8hYQRxATqgLCJIQWITNBwEIko9xRBUJEYAgCYFF2HwQSL0gUsoltlErpdaMxUwivomddB+t8W3zQbz/E8iCII8SkU1J1iiljmwR5AoiWm55UhzZJgi2/bEM2FU4CCIlBHE12zLYDwSBIBmctu5ShiAQxN1sy2BPEASCZHDauksZgkAQZ7Nt8eLFM3fs2MGDg4NbnXXaZUcQBIJ0OYWiN/c87zvM/A2t9WVBEPw6esvenQlBIIiT2SelrBLRaiL6cLPDO8MwvKZer7/gJIGYnUAQCBJz6nTWTEr5cyI6s63VMBFdleZHOUAQCNLZTI9xdqVSOUVrfdcUTW9USi2NETrxJhAEgiQ+yaSUzxPRwmk6ukMpdXriyXTYAQSBIB1Omc5Or1QqZ2utV0Zs9Qel1PERz3VyGgSBIIlOtIirR2sOu1wrl2hyEYJDEAgSYZrEO6XD1WO8E631H4Mg+EK8Xu22giAQxO6MaokmpezmSuxzlVK3JJZcxMAQBIJEnCqdnda8z8YI0s2xy20D3QSK2xaCQJC4c2fKdlLKm4novC6D/4eIDlRK/b3LOLGbQxAIEnvyTNbwwAMP3HtkZGQDEc21EPzh7du3H79x40bzpaLzIwuCmBuarB6t39zK/wli+3is7Y5C632k+dtnz/NOZOZVFqH+QCl1ucV4kUOlXpDIleDE1BCQUl5LRN+2mNC7WutFQRDULcaMFAqCRMKEkzohIKX8GxHt30mbCOeuVEqdE+E8q6dAEKs4EaxarcowDP0kSDDzEb7v/zmJ2JPF7EqQ5kd5tl9fm29SrxxLuPlZulUmE+xqYnPXFJPrlW3vQbr9uLO9fqeMOoEf4cLETsK1n/sbpdTJ3QTotK0NQWwP/vIJBLE5gXO37U+XX8hNOGeUUrHmRqVSuUhrfV2nEzHq+Y1G44B169aZl3BOjlgQWv51NxMXguw+VE73xUqTIJ7nXcfMFyU4e09VSt2ZYPxdQkOQHHwPkiZBpJTmvo9TkprAzPxD3/cvSSp+e1wIAkGsvsRKQta2BB9WSh0NQZoEEgCO9yARZlfc9yAJjFd7tm/29fVVh4aGXmv9i3K5/DEhxH5hGG4tlUpbtdZbG43G1u3bt2+bPXv21sHBwZ0Ryt7tFKwgWEGytoKQ1vpqZp5HRGM/YxtBTOXAq0T0JBE9xcxrt23b9sLGjRvfmU4aCAJBMifIdJM64t/vICJzK/AarfUjQRD8aaJ2EASCFFWQ9rrNynK97/t3t/4FBIEgtgW5kYguiPiveOpOM9/hBEEwfh0ZBIEgVgXxPO/rzPyz1M38zhK6Syn1FdMEgkAQq4JUq9VFYRg+1dl8TOXZo592QhAIYluQPcMwNHcC5uE4C4JAEKuCmGBSyseJ6LAsG8LMr/u+vy8EgSBJCHIxEf0oy4IQ0WVKqRUQBIJYF8TzvIOZ+dmsCmJWj0ajMb9er++AIBDEuiDNl1nriGggo5KM33IBQSBIIoJ4nvc9Zv5uBgV5udFoLF63bt0/bH3MizsKd58Fhb2jcAyFlPITRDRIRB/MkiTmCVi+749/j9PVCpKlwpGrewKVSuV6rfWF7nuO3eNvlVIntbaGILFZouF0BKrV6kFhGJo3633TnZuCv9/KzJ/1fd+seuMHBEnByOQtBSnlcUR0avOnlJH6Rj/Wbc8VgmRk9NKeppTyEK31CUKIE7TWXtrzbcvvbqXUlyfKGYJkbCR7kW65XH5fGIZ7EdFe/f395vcsrfVHmbkShmHF/Cai/XqRm4U+J5Vj9FMsz/NOYuZ7LHSEECCQNQJTyjEqSKVSOV9rfVPWKkO+INAlgWnlGBVESmnemCzrsjM0B4GsEHiFmVf4vh/pwaJGkF8Q0WlZqQ55gkAXBFaGYbiiXq+/EjWGEeQJIjokagOcBwJZIqC1fkMIcS8R3ef7/v2d5m4EeZ2IPtJpQ5wPAikm8C4RPa61vm/nzp33btiw4Y24uRpBdNzGaAcCKSFgXjK9REQPE9ETe+yxx7ODg4NbbeQGQWxQRIwkCSzXWm8TQozulmh+iOg981MqlTbPnj37pTVr1owklQAESYos4lohYL6grNfrPbvHHYJYGUYESYKA1npVEARfTCJ21JgQJCopnOecQBiGh9fr9b8477ilQwjSS/roeyoCTyiler4zCgTBJE0lgfY7+3qVpBFkCxHN7VUC6BcEJiCwXimVig0fjCDmDqqDMEwgkCICE9681Iv8zNW8q7TWJ/aic/QJAhMQ2CSEWFSr1cwrm54fZgW5mYjO63kmSAAEiMzToy4KguAnaYFhVpBLtdZXpSUh5FFoAs8ppRYRUZgWCmYFMZe6m0vecYBATwkw82m+7/+yp0m0dW4EWUJEj6YpKeRSSAL3K6XMbiipOtjckC+EGE5VVkimcAS01p8PgmB12gof3dVESmm+zj80bckhn2IQYObbfN8/I43Vjgried5VzHxpGhNETrkn8HYYhkvq9fraNFY6Jgi2/knj6BQjp4uVUj9Oa6mjggwMDMwrlUqb0pok8sotgVS+MW+lPb6zopSyRkRmhzwcIOCCwLAQ4oharfaMi87i9tEqyE+J6Ny4gdAOBDokkJrrrabKe1yQarV6chiGd3dYJE4HgY4JaK0fCYLgqI4b9qDBuCCe5+1DRJuY+QM9yANdFogAMy/xff+xLJS8y+7uUkqzwVZP7wHOAjTk2BWBVH9q1V5ZuyAXENGNXZWPxiAwCQGt9a1BEJyZJUC7CFIulz0hhMpSAcg1MwSe11ofEwTBm5nJ2Ozu3p6slPIpIjKXHOMAAVsEhpn5mKy872gteiJBlhJRam5YsTVCiNM7Alrr84MgMDfmZe7YTZCBgYEPlUqlISLaN3PVIOE0ErhFKZXZ79cmfEah53lXM/MlaaSNnDJF4Pdz5sz5UpJ75yZNY0JBqtWqDMPQrCIi6QQQP58EmPmZnTt3Hvfiiy/+K8sVTvqUWynlbUT0tSwXh9x7RmAHM3/S933zSIJMH1MJcjQRPZjp6pB8Twj09fUdNDQ09EJPOrfc6ZTPSa9UKndrrU+23CfC5ZiAEOKoWq32SF5KnFKQcrl8mBDi8bwUizoSJ5Cpy0ii0JhSEBPA87ybmPn8KMFwTnEJaK0vDYLgmrwRiCLI/sxsvl2fk7fiUY8dAln+InA6AtMK0lxFLmfm708XDH9fPAJa6zOCIDCfeObyiCRIuVyeJYQwq4jMJQUU1TEB8/xxZj5bKWVukcjtEUkQU72U8nQiuj23JFBYJwRqzHyO7/vmH81cH5EFaUpiLmI0FzPiKCgBZr5HCHHh0NDQa0VA0JEg8+bNmzFr1qyHiKjnz44rwuCksMYVSqnLUphXYil1JIjJwvO8Q4UQD2mtZyaWFQKnjcDbWuuleX4zPhnwjgVpvtT6JhHdkLZRRD6JEHiOmZcW4f3GRPRiCdKUBBczJjIfUxX09pGRkW9l/YrcbojGFqQpye+I6IRuEkDbVBJ4j4iWKaVuSmV2DpPqSpCmJOZNeyY2AXPINctdrRFCLKvVak9nuQhbuXctSFMSPF/E1oj0Ns61c+bMWZblOwBt47MiSFOS54joM7YTRDwnBMyNTeYl1V1OestQJ9YEaUryABEdk6H6i57qDrNRoBDihlqttrnoMKx+ijUZTCnlFUS0HLBTT+D2phh/TX2mPUzQ6goyVofneacy8696WBe6noQAMz8QhuENQRCY1R7HNAQSEaT5cutzRGQep4Dd4tMxDc3WnzcFQYALTjsYj8QEMTl4nnewEGKl1vrTHeSEUy0SMM/iYOZblVJ3WAxbmFCJCmIoVqvVPRuNxiXNjejeVxiyvS/03uZu6ubLXBwxCSQuSMv7koObkpwUM1c0i0DASCGEuDWLG0VHKM/5Kc4EGausXC6fIYQw25oOOK82vx0+qbVe1dfXt6pWq63Pb5nuK3MuiCnRbJDd399/ntb6LCL6uPuyc9HjRiJaJYQwUmBrpoSGtCeCtLzs2oeZjSTmZ0FCNeYprNnn9n6zWsydO3cVLglJfmh7KshYeQsXLnz/8PDwmCifSr7sTPVgbm01W8CuLpVKq9euXfvvTGWf8WRTIUgLQ1GpVL6qtT6WiMyPefJuEQ9zbdRqZn7wrbfeWr158+ZtRYSQhprTJsg4E/NYaiHEsUWQRWu9gYieZ+a1RDSklHqYiMI0TJCi55BaQVoHpkWWw4noICIyXzyWMjp47xDR01rrp5nZXAFthHg1o7XkPu1MCNI+CgsWLNirv79/IREtZOaFYRia3wekbLQ2MfN6szpordcLIUZ/Q4aUjdI06WRSkIlqam5JNJ+Z54dhOPqbiOZrrcf+vLeFodlJRFu01luYeYv589h/CyHM//+nEOLlkZGRDfV63VxKjiPjBHIjyHTjsGTJktKWLVtmjIyMzDBHo9GY0dfXNyMMw9Ef056Zh4lohxDCPLZ42Bzmt/nvmTNnDg8ODhpBcBSIQGEEKdCYolSLBCCIRZgIlT8CECR/Y4qKLBKAIBZhIlT+CECQ/I0pKrJIAIJYhIlQ+SMAQfI3pqjIIgEIYhEmQuWPAATJ35iiIosEIIhFmAiVPwIQJH9jioosEoAgFmEiVP4IQJD8jSkqskgAgliEiVD5IwBB8jemqMgiAQhiESZC5Y8ABMnfmKIiiwQgiEWYCJU/AhAkf2OKiiwSgCAWYSJU/ghAkPyNKSqySACCWISJUPkjAEHyN6aoyCIBCGIRJkLljwAEyd+YoiKLBCCIRZgIlT8CECR/Y4qKLBKAIBZhIlT+CECQ/I0pKrJI4L8mZRYYdNbTQgAAAABJRU5ErkJggg==" vertex="1" parent="1">
          <mxGeometry x="130" y="70" width="50" height="50" as="geometry" />
        </mxCell>
        <mxCell id="Z2Dq__Oj7p5oFGIFwOEu-7" value="" style="shape=image;verticalLabelPosition=bottom;verticalAlign=top;imageAspect=0;aspect=fixed;image=data:image/png,iVBORw0KGgoAAAANSUhEUgAAAMgAAADICAYAAACtWK6eAAAAAXNSR0IArs4c6QAAEDtJREFUeF7tnXuMXFUdx3+/s7PSSlGKbaIhaouErnPPjEglaXlISUBEHtEAigkYCBGBgAUlQgOGorGAIggEQ/3DAGKUh0KNIuUhReTNSnfuuVNaKw1QMKkIAtJ22517zFln1+l0H3funHvmPr432Wyh9/zO7/c559Mzj3vPZcIBAiAwKQEGGxAAgckJQBDMDhCYggAEwfQAAQiCOQAC8QhgBYnHDa0KQgCCFGSgUWY8AhAkHje0KggBCFKQgUaZ8QhAkHjc0KogBCBIQQYaZcYjAEHicUOrghCAIAUZaJQZjwAEiccNrQpCAIIUZKBRZjwCECQeN7QqCAEIUpCBRpnxCECQeNzQqiAEIEhBBhplxiMAQeJxQ6uCEIAgBRlolBmPAASJxw2tCkIAghRkoFFmPAIQJB43tCoIAQhSkIFGmfEIQJB43NCqIAQgSEEGGmXGIwBB4nFDq4IQgCAFGWiUGY8ABInHDa0KQgCCOBhoKaW23M1ypdSVlmMi3AQEIIiDaQFBHEBOqAsIkhDY1rAQxAHkhLqAIAmBhSAOwDroAoI4gIwVxAHkhLqAIAmBxQriAKyDLiCIA8hYQRxATqgLCJIQWKwgDsA66AKCOICMFcQB5IS6gCAJgcUK4gCsgy4giAPIWEEcQE6oCwiSEFisIA7AOugCgjiAjBXEAeSEuoAgCYHFCuIArIMuIIgDyFhBHEBOqAsIkhBYrCAOwDroAoI4gIwVxAHkhLqAIAmBxQriAKyDLiCIA8hYQRxATqgLCJIQWITNBwEIko9xRBUJEYAgCYFF2HwQSL0gUsoltlErpdaMxUwivomddB+t8W3zQbz/E8iCII8SkU1J1iiljmwR5AoiWm55UhzZJgi2/bEM2FU4CCIlBHE12zLYDwSBIBmctu5ShiAQxN1sy2BPEASCZHDauksZgkAQZ7Nt8eLFM3fs2MGDg4NbnXXaZUcQBIJ0OYWiN/c87zvM/A2t9WVBEPw6esvenQlBIIiT2SelrBLRaiL6cLPDO8MwvKZer7/gJIGYnUAQCBJz6nTWTEr5cyI6s63VMBFdleZHOUAQCNLZTI9xdqVSOUVrfdcUTW9USi2NETrxJhAEgiQ+yaSUzxPRwmk6ukMpdXriyXTYAQSBIB1Omc5Or1QqZ2utV0Zs9Qel1PERz3VyGgSBIIlOtIirR2sOu1wrl2hyEYJDEAgSYZrEO6XD1WO8E631H4Mg+EK8Xu22giAQxO6MaokmpezmSuxzlVK3JJZcxMAQBIJEnCqdnda8z8YI0s2xy20D3QSK2xaCQJC4c2fKdlLKm4novC6D/4eIDlRK/b3LOLGbQxAIEnvyTNbwwAMP3HtkZGQDEc21EPzh7du3H79x40bzpaLzIwuCmBuarB6t39zK/wli+3is7Y5C632k+dtnz/NOZOZVFqH+QCl1ucV4kUOlXpDIleDE1BCQUl5LRN+2mNC7WutFQRDULcaMFAqCRMKEkzohIKX8GxHt30mbCOeuVEqdE+E8q6dAEKs4EaxarcowDP0kSDDzEb7v/zmJ2JPF7EqQ5kd5tl9fm29SrxxLuPlZulUmE+xqYnPXFJPrlW3vQbr9uLO9fqeMOoEf4cLETsK1n/sbpdTJ3QTotK0NQWwP/vIJBLE5gXO37U+XX8hNOGeUUrHmRqVSuUhrfV2nEzHq+Y1G44B169aZl3BOjlgQWv51NxMXguw+VE73xUqTIJ7nXcfMFyU4e09VSt2ZYPxdQkOQHHwPkiZBpJTmvo9TkprAzPxD3/cvSSp+e1wIAkGsvsRKQta2BB9WSh0NQZoEEgCO9yARZlfc9yAJjFd7tm/29fVVh4aGXmv9i3K5/DEhxH5hGG4tlUpbtdZbG43G1u3bt2+bPXv21sHBwZ0Ryt7tFKwgWEGytoKQ1vpqZp5HRGM/YxtBTOXAq0T0JBE9xcxrt23b9sLGjRvfmU4aCAJBMifIdJM64t/vICJzK/AarfUjQRD8aaJ2EASCFFWQ9rrNynK97/t3t/4FBIEgtgW5kYguiPiveOpOM9/hBEEwfh0ZBIEgVgXxPO/rzPyz1M38zhK6Syn1FdMEgkAQq4JUq9VFYRg+1dl8TOXZo592QhAIYluQPcMwNHcC5uE4C4JAEKuCmGBSyseJ6LAsG8LMr/u+vy8EgSBJCHIxEf0oy4IQ0WVKqRUQBIJYF8TzvIOZ+dmsCmJWj0ajMb9er++AIBDEuiDNl1nriGggo5KM33IBQSBIIoJ4nvc9Zv5uBgV5udFoLF63bt0/bH3MizsKd58Fhb2jcAyFlPITRDRIRB/MkiTmCVi+749/j9PVCpKlwpGrewKVSuV6rfWF7nuO3eNvlVIntbaGILFZouF0BKrV6kFhGJo3633TnZuCv9/KzJ/1fd+seuMHBEnByOQtBSnlcUR0avOnlJH6Rj/Wbc8VgmRk9NKeppTyEK31CUKIE7TWXtrzbcvvbqXUlyfKGYJkbCR7kW65XH5fGIZ7EdFe/f395vcsrfVHmbkShmHF/Cai/XqRm4U+J5Vj9FMsz/NOYuZ7LHSEECCQNQJTyjEqSKVSOV9rfVPWKkO+INAlgWnlGBVESmnemCzrsjM0B4GsEHiFmVf4vh/pwaJGkF8Q0WlZqQ55gkAXBFaGYbiiXq+/EjWGEeQJIjokagOcBwJZIqC1fkMIcS8R3ef7/v2d5m4EeZ2IPtJpQ5wPAikm8C4RPa61vm/nzp33btiw4Y24uRpBdNzGaAcCKSFgXjK9REQPE9ETe+yxx7ODg4NbbeQGQWxQRIwkCSzXWm8TQozulmh+iOg981MqlTbPnj37pTVr1owklQAESYos4lohYL6grNfrPbvHHYJYGUYESYKA1npVEARfTCJ21JgQJCopnOecQBiGh9fr9b8477ilQwjSS/roeyoCTyiler4zCgTBJE0lgfY7+3qVpBFkCxHN7VUC6BcEJiCwXimVig0fjCDmDqqDMEwgkCICE9681Iv8zNW8q7TWJ/aic/QJAhMQ2CSEWFSr1cwrm54fZgW5mYjO63kmSAAEiMzToy4KguAnaYFhVpBLtdZXpSUh5FFoAs8ppRYRUZgWCmYFMZe6m0vecYBATwkw82m+7/+yp0m0dW4EWUJEj6YpKeRSSAL3K6XMbiipOtjckC+EGE5VVkimcAS01p8PgmB12gof3dVESmm+zj80bckhn2IQYObbfN8/I43Vjgried5VzHxpGhNETrkn8HYYhkvq9fraNFY6Jgi2/knj6BQjp4uVUj9Oa6mjggwMDMwrlUqb0pok8sotgVS+MW+lPb6zopSyRkRmhzwcIOCCwLAQ4oharfaMi87i9tEqyE+J6Ny4gdAOBDokkJrrrabKe1yQarV6chiGd3dYJE4HgY4JaK0fCYLgqI4b9qDBuCCe5+1DRJuY+QM9yANdFogAMy/xff+xLJS8y+7uUkqzwVZP7wHOAjTk2BWBVH9q1V5ZuyAXENGNXZWPxiAwCQGt9a1BEJyZJUC7CFIulz0hhMpSAcg1MwSe11ofEwTBm5nJ2Ozu3p6slPIpIjKXHOMAAVsEhpn5mKy872gteiJBlhJRam5YsTVCiNM7Alrr84MgMDfmZe7YTZCBgYEPlUqlISLaN3PVIOE0ErhFKZXZ79cmfEah53lXM/MlaaSNnDJF4Pdz5sz5UpJ75yZNY0JBqtWqDMPQrCIi6QQQP58EmPmZnTt3Hvfiiy/+K8sVTvqUWynlbUT0tSwXh9x7RmAHM3/S933zSIJMH1MJcjQRPZjp6pB8Twj09fUdNDQ09EJPOrfc6ZTPSa9UKndrrU+23CfC5ZiAEOKoWq32SF5KnFKQcrl8mBDi8bwUizoSJ5Cpy0ii0JhSEBPA87ybmPn8KMFwTnEJaK0vDYLgmrwRiCLI/sxsvl2fk7fiUY8dAln+InA6AtMK0lxFLmfm708XDH9fPAJa6zOCIDCfeObyiCRIuVyeJYQwq4jMJQUU1TEB8/xxZj5bKWVukcjtEUkQU72U8nQiuj23JFBYJwRqzHyO7/vmH81cH5EFaUpiLmI0FzPiKCgBZr5HCHHh0NDQa0VA0JEg8+bNmzFr1qyHiKjnz44rwuCksMYVSqnLUphXYil1JIjJwvO8Q4UQD2mtZyaWFQKnjcDbWuuleX4zPhnwjgVpvtT6JhHdkLZRRD6JEHiOmZcW4f3GRPRiCdKUBBczJjIfUxX09pGRkW9l/YrcbojGFqQpye+I6IRuEkDbVBJ4j4iWKaVuSmV2DpPqSpCmJOZNeyY2AXPINctdrRFCLKvVak9nuQhbuXctSFMSPF/E1oj0Ns61c+bMWZblOwBt47MiSFOS54joM7YTRDwnBMyNTeYl1V1OestQJ9YEaUryABEdk6H6i57qDrNRoBDihlqttrnoMKx+ijUZTCnlFUS0HLBTT+D2phh/TX2mPUzQ6goyVofneacy8696WBe6noQAMz8QhuENQRCY1R7HNAQSEaT5cutzRGQep4Dd4tMxDc3WnzcFQYALTjsYj8QEMTl4nnewEGKl1vrTHeSEUy0SMM/iYOZblVJ3WAxbmFCJCmIoVqvVPRuNxiXNjejeVxiyvS/03uZu6ubLXBwxCSQuSMv7koObkpwUM1c0i0DASCGEuDWLG0VHKM/5Kc4EGausXC6fIYQw25oOOK82vx0+qbVe1dfXt6pWq63Pb5nuK3MuiCnRbJDd399/ntb6LCL6uPuyc9HjRiJaJYQwUmBrpoSGtCeCtLzs2oeZjSTmZ0FCNeYprNnn9n6zWsydO3cVLglJfmh7KshYeQsXLnz/8PDwmCifSr7sTPVgbm01W8CuLpVKq9euXfvvTGWf8WRTIUgLQ1GpVL6qtT6WiMyPefJuEQ9zbdRqZn7wrbfeWr158+ZtRYSQhprTJsg4E/NYaiHEsUWQRWu9gYieZ+a1RDSklHqYiMI0TJCi55BaQVoHpkWWw4noICIyXzyWMjp47xDR01rrp5nZXAFthHg1o7XkPu1MCNI+CgsWLNirv79/IREtZOaFYRia3wekbLQ2MfN6szpordcLIUZ/Q4aUjdI06WRSkIlqam5JNJ+Z54dhOPqbiOZrrcf+vLeFodlJRFu01luYeYv589h/CyHM//+nEOLlkZGRDfV63VxKjiPjBHIjyHTjsGTJktKWLVtmjIyMzDBHo9GY0dfXNyMMw9Ef056Zh4lohxDCPLZ42Bzmt/nvmTNnDg8ODhpBcBSIQGEEKdCYolSLBCCIRZgIlT8CECR/Y4qKLBKAIBZhIlT+CECQ/I0pKrJIAIJYhIlQ+SMAQfI3pqjIIgEIYhEmQuWPAATJ35iiIosEIIhFmAiVPwIQJH9jioosEoAgFmEiVP4IQJD8jSkqskgAgliEiVD5IwBB8jemqMgiAQhiESZC5Y8ABMnfmKIiiwQgiEWYCJU/AhAkf2OKiiwSgCAWYSJU/ghAkPyNKSqySACCWISJUPkjAEHyN6aoyCIBCGIRJkLljwAEyd+YoiKLBCCIRZgIlT8CECR/Y4qKLBKAIBZhIlT+CECQ/I0pKrJI4L8mZRYYdNbTQgAAAABJRU5ErkJggg==" vertex="1" parent="1">
          <mxGeometry x="130" y="130" width="50" height="50" as="geometry" />
        </mxCell>
        <mxCell id="Z2Dq__Oj7p5oFGIFwOEu-8" value="Docker Daemon" style="text;html=1;strokeColor=none;fillColor=none;align=center;verticalAlign=middle;whiteSpace=wrap;rounded=0;fontStyle=1" vertex="1" parent="1">
          <mxGeometry x="227.5" y="220" width="115" height="30" as="geometry" />
        </mxCell>
        <mxCell id="Z2Dq__Oj7p5oFGIFwOEu-9" value="Docker Container" style="text;html=1;strokeColor=none;fillColor=none;align=center;verticalAlign=middle;whiteSpace=wrap;rounded=0;fontStyle=1" vertex="1" parent="1">
          <mxGeometry x="280" y="170" width="115" height="30" as="geometry" />
        </mxCell>
        <mxCell id="Z2Dq__Oj7p5oFGIFwOEu-12" style="rounded=0;orthogonalLoop=1;jettySize=auto;html=1;entryX=0.178;entryY=1.04;entryDx=0;entryDy=0;entryPerimeter=0;fontStyle=1" edge="1" parent="1">
          <mxGeometry relative="1" as="geometry">
            <mxPoint x="301" y="153" as="sourcePoint" />
            <mxPoint x="335.41999999999996" y="124.20000000000005" as="targetPoint" />
          </mxGeometry>
        </mxCell>
        <mxCell id="Z2Dq__Oj7p5oFGIFwOEu-10" value="Docker CLI" style="text;html=1;strokeColor=none;fillColor=none;align=center;verticalAlign=middle;whiteSpace=wrap;rounded=0;fontStyle=1" vertex="1" parent="1">
          <mxGeometry x="225.5" y="144" width="82" height="30" as="geometry" />
        </mxCell>
        <mxCell id="Z2Dq__Oj7p5oFGIFwOEu-16" style="edgeStyle=none;rounded=0;orthogonalLoop=1;jettySize=auto;html=1;exitX=1;exitY=0.5;exitDx=0;exitDy=0;entryX=0;entryY=0.5;entryDx=0;entryDy=0;fontStyle=1" edge="1" parent="1" target="Z2Dq__Oj7p5oFGIFwOEu-15">
          <mxGeometry relative="1" as="geometry">
            <mxPoint x="436.5" y="115" as="sourcePoint" />
            <mxPoint x="527" y="115" as="targetPoint" />
          </mxGeometry>
        </mxCell>
        <mxCell id="Z2Dq__Oj7p5oFGIFwOEu-11" value="/var/run/docker.sock" style="text;html=1;strokeColor=none;fillColor=none;align=center;verticalAlign=middle;whiteSpace=wrap;rounded=0;fontStyle=1" vertex="1" parent="1">
          <mxGeometry x="309.5" y="100" width="140" height="30" as="geometry" />
        </mxCell>
        <mxCell id="Z2Dq__Oj7p5oFGIFwOEu-13" value="Request" style="text;html=1;strokeColor=none;fillColor=none;align=center;verticalAlign=middle;whiteSpace=wrap;rounded=0;rotation=-40;fontStyle=1" vertex="1" parent="1">
          <mxGeometry x="272.27" y="136.3" width="110" height="20" as="geometry" />
        </mxCell>
        <mxCell id="Z2Dq__Oj7p5oFGIFwOEu-14" value="" style="shape=image;verticalLabelPosition=bottom;verticalAlign=top;imageAspect=0;aspect=fixed;image=data:image/png,iVBORw0KGgoAAAANSUhEUgAAAMgAAADICAYAAACtWK6eAAAAAXNSR0IArs4c6QAAETxJREFUeF7tnQuMXNV5x//fnbVrDAbPbFzapDR+zHgTGdKWh+Tm0YCUlBJC1AraUolURG6znlmDQ4oKFqmyaVUITQrBzsziqkqBJG1j0jqOWhoTKKRASIJTIC0l3jsYBbBb1t47NoY1u969X3XHXrNe7+POnXPv3Md/pJUQe873+J3z89l53DsCPkiABGYlIGRDAiQwOwEKwt1BAnMQoCDcHiRAQbgHSCAYAZ4gwbhxVkYIUJCMLDTbDEaAggTjxlkZIUBBMrLQbDMYAQoSjBtnZYQABcnIQrPNYAQoSDBunJURAhQkIwvNNoMRoCDBuHFWRghQkIwsNNsMRoCCBOPGWRkhQEEystBsMxgBChKMG2dlhAAFychCs81gBChIMG6clRECFCQjC802gxGgIMG4cVZGCFCQjCw02wxGgIIE48ZZGSFAQTKy0GwzGAEKEowbZ2WEAAXJyEKzzWAEKEgwbpyVEQIUJCMLzTaDEaAgwbhxVkYIUJAIFrpQs9VoGkG/Uy59zmhMBpuRAAWJYGNQkAggh5SCgoQEdmpYChIB5JBSUJCQwFKQCMBGkIKCRACZJ0gEkENKQUFCAssTJAKwEaSgIBFA5gkSAeSQUlCQkMDyBIkAbAQpKEgEkHmCRAA5pBQUJCSwPEEiABtBCgoSAWSeIBFADikFBQkJLE+QCMBGkIKCRACZJ0gEkENKQUFCAssTJAKwEaSgIBFA5gkSAeSQUlCQkMDyBIkAbAQpKEgEkHmCRAA5pBQUJCSwPEEiABtBCgoSAWSeIBFADikFBQkJLMOmgwAFScc6souQCFCQkMAybDoIxF6QpVvsi02jPnhd6dHJmGHE92KHnWNqfNN8GO8tArEXJF+zHxHAmCQKPNqolC6ZRFAYsD8LRb/JTeFO4JKpG5hP0k3SjTYWBaEg0e64hGWjIBQkYVs22nIpCAWJdsclLBsFoSAJ27LRlktBKEhkO+6X7nj5NPf0V2Vf74UjkSVtMxEFoSBtbiH/0/MD9T8V1V4VuaVRLv6j/5mdG0lBKEgkuy9f++l7BLmdAH7heMJvuILbD5ZLT0dSQMAkFISCBNw6rU0r1OyvAPjE1FkKjIrgtjh/lQMFoSCt7fQAows1+3cBbJt1qspmp6+4MUDo0KdQEAoS+ibL1+xdAlwwVyIFvtaolD4eejEtJqAgFKTFLdPa8Hyt/kmBbvU3S/7VqRQ/6m9sNKMoCAUJdaf5OT2mPS856bNyoRbnIzgFoSA+tkmwIa2dHifl+DenUvpIsKxmZ1EQCmJ2R02J1s4nsRVWuVFZdXdoxfkMTEEoiM+t0tow7zobK4dHWpt18ujplw20EyvoXApCQYLunTnn5at2VQSVNoO/PpHDrx7qLb3QZpzA0ykIBQm8eWabuPTOp5fKwjMGRbCs/eD6kDMuH8X1pdH2Y7UeIfaCNK/4M/yY+s5tGPHdcXzvpCsKQ+7BMJ62wy2t2R+zgB1tBzoeQEX+slEufsZUvFbixF6QVprh2HgQKFTtL0LwJ8aqERyGYK2zvvQ/xmL6DERBfILiMP8E8jXbFqDof4aPkSJbnXJxvY+RRodQEKM4GSw/UD9XVP8rDBKulfvgwfUr/yOM2LPFbEsQ76U8ycHocwQRPDr1OYL3WrppINPvaqJq7q4pXq06gc9NfQ5iuoeoGbXCf94PJrYS7NSx/+RUSle1F6K12W0L0u5r3aeUK+ifLghv+zONUsiMvGxOpRRobxQG7BuguKO1beh/dM6yVu9fv8r2P6O9kYEgTKY08WYQBQmwgHEWpGrfAcENAbryN0Xlaqev+A1/g9sfRUFS8D5IOx/pmG0LBT5BarZ33Yd3/UcoDxH5q+Fy8aZQgs8QlIJQkBn3WlBBwpD15ALlIadS/DAFOU7ANPA03nrUNKN2noOEUctJMggcgfue4XLP3qn/P7/1hV/WMXdlrssdcZEbcdUdWagLRsa73CMNNEbQe+HRIFLxBOEJkrATBBDB51VlOaDLAXg/kzeCmMuBlwF8H6pPuiLPWON42rm+9Np80lAQCpI4Qebb1L5+LxiDYpf3F4Ul8vBwufjvM82jIBQkm4JM71rwJBR3OpXS/VN/RUEoiGFB6psFep2vf8XjOegOp1I68TkyCkJBjApSGKj/MVT/Jp5732dVim1OX+n3vdEUhIKYFaRmrwXwpM+tGNthk692UhAKYlSQs+/7v9OPvn749dju/FYKE2sdBaEgRgXxghVq9ccAfX8rezGGY/c5ldI7KAgFMS9IdfBGiHwhhpved0kC95bhSs+tFISCGBeku7r7IhXrR753Y/wG7nOGxlagf80YBaEgxgVp/plVHXweIu+K3973UdGUT0tTEAoSjiAD9T+H6p/52I4xGyI/s3Jdv36gd/n/GnmZl1cUnrq+Wb6icJLGWZvtVbku/BjAWTEzYM5yFNLbqBRPvI/T1gmSpMZZa/QECjX7TgCfij5z0Izyz06leOXU2RQkKEvOm5fAWVvt83MT8J6s5+Yd3PkBIxbkNw5Uit6pd+JBQTq/MKmrIF8bvByQq0X1aoh0JaFBAW4ZrpRunV4rBUnC6iWgxkK1/l6x9ApVXAFgTQJKnlri/U6l9Hsz1UxBEraSHSl323MLlwxZS3I5LJFxLJEFXWdAcQ5UzlPR80RxHoCVHamt/aSzyuGFlsLA4JVQ+Wb7eRiBBBJHYE45moJ0D9Q3qOqWxLXGgkmgPQLzytEUJF+zvc+bbGovF2eTQGIIvKQitzbKRV9fLCrdNfurClyTmPZYKAkEJaC6VbtytzZ6V73kN4QUavYTAN7rdwLHkUDCCByAyHadmPhWY0PPA63WLoVafR+gv9jqRI4ngRgTOAyRx+BOfOtoF7Yf7u05ELRW7wTRoJM5jwRiQuAlBfZYKg9NuPrE4oWn/2hf79tHTNRGQUxQZIzwCAj61dUjlmWNKHRE4Y7Atd6wLHlDJuSVAwdW7kG/jIdVAAUJiyzjGiGQ07El+/vWdOwadwpiZBkZJAwCqtjR6Cv9dhix/cakIH5JcVzkBFStDzT6Vj0eeeIpCSlIJ+kz9xwE5AmnUuz4nVEoCDdpLAlMv7KvU0VKvmoPiWBZpwpgXhI4lYDsdirFWNzwQfID9o9FcT6XiQTiQmC2i5c6UZ/3YcUdAnysE8mZkwRmIPDiApG1r5aLQ3Gg4/2JVRVBJQ7FsAYSAHCDUyl9KS4kvD+xbhbFbXEpiHVkmYA+5Qz9/Vr097txoeD9iXWNAF+NS0GsI7sEVHBNo1z6epwIyNIt9sVWDo/EqSjWkkECqg84fasvj1vngm3PLSwcWDgat8JYT8YICH7LKZd2xq3r5l1NCrX644C+L27FsZ6sEJB7nUrx2jh22xSku2rfpoKb41gga0o9gUOu6sUH+1Y/E8dOj50gvPVPHNcmGzWpe6PT1/PXcW22KcjSgeeXW9r1YlyLZF0pJSDygFMuxu6J+VTaJ+6sWBio/wSq3h3y+CCB0AkoMGrluj443Lvih6EnayPBCUG6a3ZNgXIbsTiVBHwTiNPnreYq+q0T5G77Kri433eHHEgCQQmIPOyUix8KOj3KeScEOfNvXy50jb3pPQ85M8oCmCt7BFzg4oOV0veS0PlJd3fP1+ztAnT0GuAkQGONbRCI+atW0zs7SZDuWv06hW5uo31OJYHZCaje4/St/kSSEJ0kSOHL9hpY+O8kNcBaE0JAZNf4gp+79LU/OsdJSMXNMk/5Ap1CzX4SwNokNcFa403Ae0lXgUuT8rxjKs1TBakOboRIbC5YiffSszo/BATYMFwpVf2MjduYUwRZ8uXnuxdYXc8CeEfcimU9ySMgkLuHK8XEvr8243cUdtfszytwU/KWgxXHiYAA/zI89MrvoP+S0O6dG3a/MwqSH6ifK6reKWKFXQDjp5bAD4+645cf3vDu4SR3OOu33OZr9r0C/GGSm2PtHSMwNgF996HK6j0dq8BQ4lkFKdw9+GG48qChPAyTIQKu4PyD5dLTaWh5zu9JLwzY90NxVRoaZQ/REBDX/dDwhp6Ho8kWfpY5BclXd79fxHos/DKYIRUERG50ysXYXvwUhPGcgngB8wP1LaK6IUhwzskOAQVublRKt6et43kFObNaL3aJeu+uvy1tzbMfMwSS/EbgfATmFcQL0F0b/IxC/mK+YPx99ggI3GuHKz33prVzX4Isqz53xoQs9E6Rc9MKgn21TOCAiPvJ4XLP9pZnJmiCL0Gap8iA/XFV3Jeg3lhqaATkJ3B1vbOh5P2jmeqHb0E8CoWB+pegujHVRNjc3AQE3xS4nxou9+zNAqqWBFn+dy8ueu3IxHcB7fh3x2VhceLWowK3NiqlW+JWV5j1tCSIV0h+oP4+UXiSnBZmYYwdKwKHBLJxuFJM7ZPx2Wi3LMix5yP161X1rlgtIYsJiYA+BUs2OuvT/3xjJoCBBGmeJLX6vQLlhxlD2pZxCKvAfePu+KeT/oncdlgGFqR5klQHv60iV7RTAOfGkIDqGyLYNFxZvSWG1UVaUluCNF/Zqg1+F5BE3AQsUrIJTabAowJsciqlHyS0BaNlty3IMUnsxwHw+0WMLk0ngukXnaG9m5J8BaBpakYEaUpStZ+C4ELTBTJeJAT2QLDJKZe2RZItQUmMCXL8JPkOgEsT1H+2SxWMwdXNmJC7nOtLr2QbxszdGxWkKcmA/Vko+gk73gS8V6hcF3cd2lD6z3hX2tnqjAvitZMfqF8tqv/Q2daYfRYC34HKXU5f0Tvt+ZiHQCiCHH9O8puQ5tcp8G7xcdiGIrvExZbhviI/cNrCeoQmiFdDd3X3RRBrqwK/1kJNHGqSgMjDqnpPo1L6msmwWYkVqiAexLO/8OzpRxefdpMKbhLIwqyA7XifqttdkXsOVkrf7ngtCS4gdEEm2XRXX7hIxfXu1nhlgnnFv3TVe46LkYgvqIk70MgEeUuUwWubtzUVeVfc4SSnPvm+Cnbk1NpxoLJyd3Lqjn+lkQviIWneIDu3oALVdQDeGX9M8atQgboodqi4OxqVHt6aKaQl6oggk71434uYGxtdJ3DXAdITUo8pCqvDCnlARHc4r+7dwY+EhL+0HRVksr23b923eHRiZJ0eE+VXwm87URn2Avog1NrpjuV2HrxhxcFEVZ/wYmMhyAmG/Wrlz67/geXiMhW9DJBCwvkGLX+PCHZC3QdPe3Pxzlc+fc6RoIE4rz0C8RJkSi/NP7+OvnlZRmQZFGCXC3nG+9oJZ//XH0J/v9ve0nK2CQKxFWRqc5OyiCsfgLjno/nGo3SZANCBGK8B8K61+IGK9ZS4+qzTV3y5A3UwpQ8CiRBkeh9vu/2nS8YX5y6wLPcCQI79CFb76DfKIS8CshvqDipktyU6qGrtpgxRLkH7uRIpyExte7ckOjxydIWby62wXHeFKlZAdIVAjv83lraPS48CGBLIkALNH1EMqSVDFjDkqrsfYv2s8eroIPrXjLWfjxE6TSA1gswLsv+RrmXLfn7Rm11dixaMWovGc7IoZ2FRbnx80YQli4Au7/vmRicmxsdygtFx6OgCYHRUdHSRuKP7u46MovdCTxA+MkQgO4JkaFHZqjkCFMQcS0ZKIQEKksJFZUvmCFAQcywZKYUEKEgKF5UtmSNAQcyxZKQUEqAgKVxUtmSOAAUxx5KRUkiAgqRwUdmSOQIUxBxLRkohAQqSwkVlS+YIUBBzLBkphQQoSAoXlS2ZI0BBzLFkpBQSoCApXFS2ZI4ABTHHkpFSSICCpHBR2ZI5AhTEHEtGSiEBCpLCRWVL5ghQEHMsGSmFBChICheVLZkjQEHMsWSkFBKgIClcVLZkjgAFMceSkVJIgIKkcFHZkjkCFMQcS0ZKIQEKksJFZUvmCFAQcywZKYUEKEgKF5UtmSPw/1d/yxo267BlAAAAAElFTkSuQmCC" vertex="1" parent="1">
          <mxGeometry x="580" y="40" width="60" height="60" as="geometry" />
        </mxCell>
        <mxCell id="Z2Dq__Oj7p5oFGIFwOEu-15" value="/var/run/docker.sock" style="text;html=1;strokeColor=none;fillColor=none;align=center;verticalAlign=middle;whiteSpace=wrap;rounded=0;fontStyle=1" vertex="1" parent="1">
          <mxGeometry x="540" y="100" width="140" height="30" as="geometry" />
        </mxCell>
        <mxCell id="Z2Dq__Oj7p5oFGIFwOEu-17" value="Mount" style="text;html=1;strokeColor=none;fillColor=none;align=center;verticalAlign=middle;whiteSpace=wrap;rounded=0;fontStyle=1" vertex="1" parent="1">
          <mxGeometry x="430" y="90" width="115" height="30" as="geometry" />
        </mxCell>
        <mxCell id="Z2Dq__Oj7p5oFGIFwOEu-20" style="edgeStyle=none;rounded=0;orthogonalLoop=1;jettySize=auto;html=1;exitX=0.5;exitY=0;exitDx=0;exitDy=0;entryX=0.434;entryY=1.04;entryDx=0;entryDy=0;entryPerimeter=0;fontStyle=1" edge="1" parent="1" source="Z2Dq__Oj7p5oFGIFwOEu-19" target="Z2Dq__Oj7p5oFGIFwOEu-15">
          <mxGeometry relative="1" as="geometry" />
        </mxCell>
        <mxCell id="Z2Dq__Oj7p5oFGIFwOEu-19" value="Docker CLI" style="text;html=1;strokeColor=none;fillColor=none;align=center;verticalAlign=middle;whiteSpace=wrap;rounded=0;fontStyle=1" vertex="1" parent="1">
          <mxGeometry x="542.5" y="180" width="115" height="30" as="geometry" />
        </mxCell>
        <mxCell id="Z2Dq__Oj7p5oFGIFwOEu-21" value="Request" style="text;html=1;strokeColor=none;fillColor=none;align=center;verticalAlign=middle;whiteSpace=wrap;rounded=0;fontStyle=1" vertex="1" parent="1">
          <mxGeometry x="570" y="144" width="115" height="30" as="geometry" />
        </mxCell>
      </root>
    </mxGraphModel>
  </diagram>
</mxfile>
